<?xml version="1.0" encoding="utf-8"?>
<!-- Generator: Adobe Illustrator 24.0.0, SVG Export Plug-In . SVG Version: 6.00 Build 0)  -->
<svg version="1.1" id="Layer_1" xmlns="http://www.w3.org/2000/svg" xmlns:xlink="http://www.w3.org/1999/xlink" x="0px" y="0px"
	 viewBox="0 0 50 50" style="enable-background:new 0 0 50 50;" xml:space="preserve">
<style type="text/css">
	.st0{fill:#1E66FF;}
</style>
<g>
	<title>plus-circle</title>
	<path class="st0" d="M12.5,23.2C12.5,23.2,12.5,23.2,12.5,23.2c-1,0-1.8,0.8-1.8,1.8c0,1,0.8,1.8,1.8,1.8c0,0,0,0,0,0h25
		c0,0,0,0,0,0c1,0,1.8-0.8,1.8-1.8c0-1-0.8-1.8-1.8-1.8c0,0,0,0,0,0H12.5z"/>
	<path class="st0" d="M26.8,12.5C26.8,12.5,26.8,12.5,26.8,12.5c0-1-0.8-1.8-1.8-1.8s-1.8,0.8-1.8,1.8c0,0,0,0,0,0v0v25c0,0,0,0,0,0
		c0,1,0.8,1.8,1.8,1.8s1.8-0.8,1.8-1.8c0,0,0,0,0,0v0V12.5z"/>
	<path class="st0" d="M25,0C11.2,0,0,11.2,0,25s11.2,25,25,25c13.8,0,25-11.2,25-25S38.8,0,25,0z M25,3.6c11.9,0,21.4,9.6,21.4,21.4
		S36.9,46.4,25,46.4S3.6,36.9,3.6,25S13.1,3.6,25,3.6z"/>
</g>
</svg>
