<?xml version="1.0" encoding="utf-8"?>
<!-- Generator: Adobe Illustrator 24.0.0, SVG Export Plug-In . SVG Version: 6.00 Build 0)  -->
<svg version="1.1" id="Layer_1" xmlns="http://www.w3.org/2000/svg" xmlns:xlink="http://www.w3.org/1999/xlink" x="0px" y="0px"
	 viewBox="0 0 50 50" style="enable-background:new 0 0 50 50;" xml:space="preserve">
<style type="text/css">
	.st0{fill:#FFFFFF;}
</style>
<g>
	<g>
		<path class="st0" d="M24.9,3.9L44.7,26h-1.4h-3.5v3.5v16.9l-6.7,0v-9.6c0-2.1-1.9-4-4-4H21c-2.2,0-4.2,1.9-4.2,4l0,9.6h-6.7V29.5
			V26H6.6H5.3L24.9,3.9 M24.9,0.1c-0.8,0-1.6,0.3-2.1,0.9L1.1,25.5c-1.4,1.6-0.3,4,1.7,4h3.8v16.9c0,1.9,1.6,3.5,3.5,3.5h7.4
			c1.6,0,2.8-1.2,2.8-2.9V36.8c0-0.2,0.3-0.5,0.7-0.5h8.1c0.2,0,0.5,0.3,0.5,0.5V47c0,1.7,1.2,2.9,2.9,2.9h7.3
			c1.9,0,3.5-1.6,3.5-3.5V29.5h3.8c2.1,0,3.3-2.4,1.9-4L27,1C26.5,0.4,25.7,0.1,24.9,0.1L24.9,0.1z"/>
	</g>
</g>
<text transform="matrix(1 0 0 1 -117 148)" style="font-family:'Arial-BoldMT'; font-size:5px;">Created by Saifurrijal</text>
<text transform="matrix(1 0 0 1 -117 153)" style="font-family:'Arial-BoldMT'; font-size:5px;">from the Noun Project</text>
</svg>
