<?xml version="1.0" encoding="utf-8"?>
<!-- Generator: Adobe Illustrator 24.0.0, SVG Export Plug-In . SVG Version: 6.00 Build 0)  -->
<svg version="1.1" id="Layer_1" xmlns="http://www.w3.org/2000/svg" xmlns:xlink="http://www.w3.org/1999/xlink" x="0px" y="0px"
	 viewBox="0 0 50 50" style="enable-background:new 0 0 50 50;" xml:space="preserve">
<style type="text/css">
	.st0{fill:#1E66FF;}
	.st1{fill:none;stroke:#1E66FF;stroke-width:3.5;stroke-linecap:round;stroke-miterlimit:10;}
</style>
<g>
	<g>
		<path class="st0" d="M9.4,3.5c0.1,0,0.2,0.1,0.4,0.3c2.3,2.1,4.5,4.4,6.9,6.9c0,0,0.1,0.1,0.1,0.1c0,0.1-0.1,0.2-0.3,0.4
			c-1,1.1-2.2,2.3-3.5,3.6c-1.9,1.8-2.3,4.1-1,6.4c3.7,6.9,9.2,12.4,16.7,16.9c0.9,0.5,1.8,0.8,2.8,0.8c1.5,0,2.8-0.6,3.9-1.9
			c1-1.1,2.1-2.2,3.5-3.4c0.2-0.1,0.3-0.2,0.4-0.3c0,0,0.1,0.1,0.1,0.1c2.4,2.2,4.8,4.6,7.1,7c0.1,0.1,0.2,0.2,0.2,0.2
			c0,0.1-0.1,0.1-0.2,0.2c-0.5,0.5-0.9,1-1.4,1.5c-1.6,1.8-3,3.3-4.8,4.1c-0.4,0.1-0.6,0.1-0.8,0.1c-0.4,0-0.9-0.1-1.7-0.2l-0.4-0.1
			c-0.5-0.2-1.1-0.3-1.6-0.5c-8.9-2.7-16.5-8-23.3-16.4c-4.1-5-7-10.6-8.7-16.7c-0.2-1.2-0.3-1.8,0-2.9c0.9-1.9,2.5-3.4,4.4-5
			c0.4-0.3,0.7-0.6,1.1-1C9.2,3.6,9.3,3.5,9.4,3.5 M9.4,0C8.5,0,7.6,0.4,6.7,1.1C4.3,3.4,1.6,5.5,0.3,8.7c-0.4,1.8-0.4,2.9,0,4.8
			c1.8,6.7,4.9,12.8,9.4,18.1c6.7,8.2,14.8,14.4,25,17.5c0.7,0.2,1.5,0.4,2.2,0.6c1.1,0.2,1.8,0.3,2.5,0.3c0.6,0,1.2-0.1,1.9-0.3
			c3.2-1.3,5.2-4.1,7.5-6.5c1.6-1.7,1.6-3.5,0-5.2c-2.3-2.5-4.8-4.9-7.3-7.2c-0.8-0.7-1.6-1.1-2.4-1.1c-0.9,0-1.9,0.5-2.8,1.3
			c-1.2,1.2-2.5,2.4-3.6,3.6c-0.5,0.5-0.9,0.8-1.4,0.8c-0.3,0-0.6-0.1-1-0.3c-6.5-3.8-11.8-8.8-15.4-15.5c-0.5-0.9-0.4-1.6,0.4-2.2
			c1.3-1.2,2.6-2.5,3.7-3.8c1.5-1.7,1.6-3.7,0.1-5.3c-2.3-2.4-4.6-4.7-7-7C11.3,0.4,10.3,0,9.4,0L9.4,0z"/>
	</g>
</g>
<path class="st1" d="M28.2,13.8c4.4,0,8,3.6,8,8"/>
<path class="st1" d="M42.9,21.8c0-8.1-6.6-14.7-14.7-14.7"/>
</svg>
