<?xml version="1.0" encoding="utf-8"?>
<!-- Generator: Adobe Illustrator 24.0.1, SVG Export Plug-In . SVG Version: 6.00 Build 0)  -->
<svg version="1.1" id="Layer_1" xmlns="http://www.w3.org/2000/svg" xmlns:xlink="http://www.w3.org/1999/xlink" x="0px" y="0px"
	 viewBox="0 0 77.4 102.9" style="enable-background:new 0 0 77.4 102.9;" xml:space="preserve">
<style type="text/css">
	.st0{fill:#3761AB;}
	.st1{fill:#FFFFFF;}
</style>
<g>
	<image style="overflow:visible;" width="146" height="173" xlink:href="FDA266D.png"  transform="matrix(1 0 0 1 -33.1795 -34.5)">
	</image>
</g>
<path class="st0" d="M37.5,0C17.3,0,0.8,16.5,0.8,36.7c0,26.2,31.4,60.2,32.7,61.6c1,1.1,2.5,1.7,4,1.7c1.5,0,2.9-0.6,4-1.7
	c1.3-1.4,32.7-35.4,32.7-61.6C74.2,16.5,57.7,0,37.5,0z M23,35.5c0-8,6.5-14.5,14.5-14.5S52,27.5,52,35.5c0,8-6.5,14.5-14.5,14.5
	C29.5,50,23,43.5,23,35.5z"/>
<circle class="st1" cx="37.5" cy="35.5" r="14.5"/>
</svg>
