<?xml version="1.0" encoding="utf-8"?>
<!-- Generator: Adobe Illustrator 24.0.1, SVG Export Plug-In . SVG Version: 6.00 Build 0)  -->
<svg version="1.1" id="Layer_1" xmlns="http://www.w3.org/2000/svg" xmlns:xlink="http://www.w3.org/1999/xlink" x="0px" y="0px"
	 viewBox="0 0 50 50" style="enable-background:new 0 0 50 50;" xml:space="preserve">
<style type="text/css">
	.st0{fill-rule:evenodd;clip-rule:evenodd;fill:#FFFFFF;}
</style>
<text transform="matrix(1 0 0 1 -3251.8 2483.583)" style="font-family:'Arial-BoldMT'; font-size:0.3277px;">Created by IcoMoon</text>
<text transform="matrix(1 0 0 1 -3251.8 2483.9111)" style="font-family:'Arial-BoldMT'; font-size:0.3277px;">from the Noun Project</text>
<path class="st0" d="M49.9,3.3C49.9,3.2,49.9,3.2,49.9,3.3c-0.2-0.8-0.5-1.5-1.1-2.1c-0.6-0.6-1.3-0.9-2-1.1c0,0,0,0-0.1,0
	C46.5,0,46.2,0,45.9,0c0,0,0,0,0,0h-37C6.7,0,4.8,1.8,4.8,4.1c0,2.2,1.8,4.1,4.1,4.1h27.2L1.2,43c-1.6,1.6-1.6,4.2,0,5.8
	c1.6,1.6,4.2,1.6,5.8,0l34.9-34.9v27.2c0,2.2,1.8,4.1,4.1,4.1c2.2,0,4.1-1.8,4.1-4.1v-37c0,0,0,0,0,0C50,3.8,50,3.5,49.9,3.3z"/>
</svg>
