<?xml version="1.0" encoding="utf-8"?>
<!-- Generator: Adobe Illustrator 24.0.0, SVG Export Plug-In . SVG Version: 6.00 Build 0)  -->
<svg version="1.1" id="Layer_1" xmlns="http://www.w3.org/2000/svg" xmlns:xlink="http://www.w3.org/1999/xlink" x="0px" y="0px"
	 viewBox="0 0 50 50" style="enable-background:new 0 0 50 50;" xml:space="preserve">
<style type="text/css">
	.st0{fill:#FFFFFF;}
</style>
<path class="st0" d="M7.6,23.9c-1.1,1.1-1.8,2.6-1.8,4.3c0,3.3,2.7,6,6,6h16.6c3,0,5.5-2.2,6-5c0.2-0.4,0.3-0.8,0.3-1.3V13.6
	c0-1.7-1.4-3-3-3s-3,1.4-3,3v8.5c-0.1,0-0.1,0-0.2,0H14.4l-0.3-5.5c-0.1-1.2-0.8-2.3-1.8-2.8l-7.2-4c-1.7-0.9-3.8-0.3-4.7,1.3
	c-0.9,1.7-0.3,3.8,1.3,4.7l5.6,3.1L7.6,23.9z"/>
<rect x="5" y="37.2" class="st0" width="45" height="3.5"/>
<circle class="st0" cx="43.4" cy="27.8" r="6.6"/>
</svg>
