<?xml version="1.0" encoding="utf-8"?>
<!-- Generator: Adobe Illustrator 24.0.0, SVG Export Plug-In . SVG Version: 6.00 Build 0)  -->
<svg version="1.1" id="Layer_1" xmlns="http://www.w3.org/2000/svg" xmlns:xlink="http://www.w3.org/1999/xlink" x="0px" y="0px"
	 viewBox="0 0 50 50" style="enable-background:new 0 0 50 50;" xml:space="preserve">
<style type="text/css">
	.st0{fill:#FFFFFF;}
</style>
<path class="st0" d="M25,0C11.2,0,0,11.2,0,25c0,13.8,11.2,25,25,25s25-11.2,25-25C50,11.2,38.8,0,25,0z M25,45.7
	C13.6,45.7,4.3,36.4,4.3,25S13.6,4.3,25,4.3S45.7,13.6,45.7,25S36.4,45.7,25,45.7z"/>
<path class="st0" d="M33.8,9.8c-0.2-0.1-0.5-0.1-0.6,0.1L20.4,22.2c-0.1,0.1-0.1,0.2-0.1,0.3L16,39.6c-0.1,0.2,0,0.5,0.3,0.6
	c0.1,0,0.2,0.1,0.3,0.1c0.1,0,0.3-0.1,0.4-0.1l12.7-12.3c0.1-0.1,0.1-0.2,0.1-0.3L34,10.4C34.1,10.2,34,9.9,33.8,9.8z M25,26.9
	c-1.1,0-1.9-0.9-1.9-1.9c0-1.1,0.9-1.9,1.9-1.9c1.1,0,1.9,0.9,1.9,1.9C26.9,26.1,26.1,26.9,25,26.9z"/>
</svg>
