<?xml version="1.0" encoding="utf-8"?>
<!-- Generator: Adobe Illustrator 24.0.0, SVG Export Plug-In . SVG Version: 6.00 Build 0)  -->
<svg version="1.1"
	 id="Layer_1" xmlns:cc="http://creativecommons.org/ns#" xmlns:dc="http://purl.org/dc/elements/1.1/" xmlns:inkscape="http://www.inkscape.org/namespaces/inkscape" xmlns:rdf="http://www.w3.org/1999/02/22-rdf-syntax-ns#" xmlns:sodipodi="http://sodipodi.sourceforge.net/DTD/sodipodi-0.dtd" xmlns:svg="http://www.w3.org/2000/svg"
	 xmlns="http://www.w3.org/2000/svg" xmlns:xlink="http://www.w3.org/1999/xlink" x="0px" y="0px" viewBox="0 0 50 50"
	 style="enable-background:new 0 0 50 50;" xml:space="preserve">
<style type="text/css">
	.st0{fill:#FFFFFF;}
</style>
<path class="st0" d="M37.7,0.8c-1.1,0-2.1,0.9-2.1,2.1s0.9,2.1,2.1,2.1h5.2l-4.2,4.2c-2.5-1.9-5.6-3-8.9-3c-2.7,0-5.3,0.7-7.5,2.1
	c-2.3-1.3-4.8-2.1-7.5-2.1c-3.9,0-7.7,1.5-10.5,4.3C1.5,13.3,0,17,0,21c0,3.9,1.5,7.7,4.3,10.5c2.3,2.3,5.2,3.7,8.4,4.2v3.3H8.6
	c-1.1,0-2.1,0.9-2.1,2.1c0,1.1,0.9,2.1,2.1,2.1h4.1v4.1c0,1.1,0.9,2.1,2.1,2.1s2.1-0.9,2.1-2.1V43H21c1.1,0,2.1-0.9,2.1-2.1
	c0-1.1-0.9-2.1-2.1-2.1h-4.1v-3.3c1.9-0.3,3.8-0.9,5.5-1.9c2.3,1.3,4.8,2.1,7.5,2.1c3.9,0,7.7-1.5,10.4-4.3
	c2.8-2.8,4.3-6.5,4.3-10.5c0-3.2-1-6.3-3-8.9l4.2-4.2v5.2c0,1.1,0.9,2.1,2.1,2.1c1.1,0,2.1-0.9,2.1-2.1V2.9c0-1.1-0.9-2.1-2.1-2.1
	L37.7,0.8L37.7,0.8z M14.8,10.3c1.4,0,2.8,0.3,4,0.8c-2.4,2.7-3.8,6.2-3.8,9.8c0,3.7,1.3,7.1,3.8,9.8c-1.3,0.5-2.6,0.8-4,0.8
	c-2.8,0-5.5-1.1-7.5-3.1c-2-2-3.1-4.7-3.1-7.5c0-2.8,1.1-5.5,3.1-7.5C9.3,11.4,11.9,10.3,14.8,10.3L14.8,10.3z M29.8,10.3
	c2.8,0,5.5,1.1,7.5,3.1c2,2,3.1,4.7,3.1,7.5c0,2.8-1.1,5.5-3.1,7.5c-2,2-4.7,3.1-7.5,3.1c-1.4,0-2.8-0.3-4-0.8
	c2.4-2.7,3.8-6.2,3.8-9.8c0-3.7-1.3-7.1-3.8-9.8C27.1,10.6,28.4,10.3,29.8,10.3L29.8,10.3z M22.3,13.5c2,2,3.1,4.7,3.1,7.5
	c0,2.8-1.1,5.5-3.1,7.5c-2-2-3.1-4.7-3.1-7.5C19.2,18.1,20.3,15.5,22.3,13.5L22.3,13.5z"/>
</svg>
