<?xml version="1.0" encoding="utf-8"?>
<!-- Generator: Adobe Illustrator 24.0.0, SVG Export Plug-In . SVG Version: 6.00 Build 0)  -->
<svg version="1.1" xmlns="http://www.w3.org/2000/svg" xmlns:xlink="http://www.w3.org/1999/xlink" x="0px" y="0px"
	 viewBox="0 0 50 50" style="enable-background:new 0 0 50 50;" xml:space="preserve">
<style type="text/css">
	.st0{fill:#FFFFFF;}
</style>
<g id="Layer_2">
</g>
<g id="Layer_1">
	<g>
		<circle class="st0" cx="11.2" cy="5.7" r="5.7"/>
		<path class="st0" d="M16,12.7H6.4c-3.1,0-5.6,2.5-5.6,5.6V29c0,1.1,0.8,2,1.9,2.1c1.2,0.1,2.2-0.8,2.2-2v-9.2
			c0-0.3,0.3-0.6,0.6-0.6c0.3,0,0.6,0.3,0.6,0.6v27.7c0,1.2,0.9,2.3,2.1,2.3c1.3,0.1,2.4-0.9,2.4-2.3V31.4c0-0.3,0.3-0.6,0.6-0.6
			c0.3,0,0.6,0.3,0.6,0.6v16.3c0,1.2,0.9,2.3,2.1,2.3c1.3,0.1,2.4-0.9,2.4-2.3V19.9c0-0.3,0.3-0.6,0.6-0.6c0.3,0,0.6,0.3,0.6,0.6V29
			c0,1.1,0.8,2,1.9,2.1c1.2,0.1,2.2-0.8,2.2-2V18.4C21.6,15.3,19.1,12.7,16,12.7z"/>
		<g>
			<path class="st0" d="M36.6,1c2.6,0,4.7,2.1,4.7,4.7s-2.1,4.7-4.7,4.7c-2.6,0-4.7-2.1-4.7-4.7S34,1,36.6,1 M36.6,0
				c-3.2,0-5.7,2.6-5.7,5.7s2.6,5.7,5.7,5.7c3.2,0,5.7-2.6,5.7-5.7S39.7,0,36.6,0L36.6,0z"/>
		</g>
		<g>
			<path class="st0" d="M40,13.7c2,0,3.8,1.3,4.4,3.2l3.7,11.8c0.1,0.3,0.1,0.5-0.1,0.8c-0.1,0.2-0.3,0.4-0.6,0.5
				c-0.1,0-0.3,0.1-0.3,0.1c-0.5,0-0.9-0.3-1-0.7L43.2,20c-0.1-0.5-0.6-0.9-1.1-0.9c-0.6,0-1.2,0.5-1.2,1.1l-0.1,0.9
				c-0.1,0.8,0,1.7,0.2,2.7l3.9,12.4c0.1,0.3,0,0.7-0.2,1c-0.1,0.1-0.4,0.4-0.8,0.4h-2.3h-1v1v9.2c0,0.7-0.5,1.3-1.2,1.3
				c0,0-0.1,0-0.1,0c-0.6,0-1.1-0.6-1.1-1.3v-8.5c0-0.9-0.7-1.6-1.6-1.6c-0.9,0-1.6,0.7-1.6,1.6v8.6c0,0.7-0.5,1.3-1.2,1.3
				c0,0-0.1,0-0.1,0c-0.6,0-1.1-0.6-1.1-1.3v-9.1v-1h-1h-2.3c-0.3,0-0.7-0.2-0.8-0.4c-0.1-0.2-0.3-0.5-0.1-0.9l3.9-12.4
				c0.3-1,0.4-1.9,0.2-2.6l-0.1-0.9c0-0.6-0.6-1.1-1.2-1.1c-0.5,0-1,0.3-1.1,0.9l-2.9,9.5c-0.1,0.4-0.5,0.7-1,0.7
				c-0.1,0-0.2,0-0.3,0c-0.2-0.1-0.4-0.2-0.6-0.5c-0.1-0.2-0.2-0.5-0.1-0.8L28.7,17c0.6-1.9,2.4-3.2,4.4-3.2H40 M40,12.7h-6.9
				c-2.5,0-4.6,1.6-5.4,3.9L24,28.5c-0.3,1.1,0.3,2.2,1.3,2.5c0.2,0.1,0.4,0.1,0.6,0.1c0.9,0,1.7-0.5,1.9-1.4l2.9-9.5
				c0-0.1,0.1-0.1,0.2-0.1c0.1,0,0.2,0.1,0.2,0.2l0.1,0.9c0.1,0.7,0,1.5-0.2,2.3l-3.9,12.4c-0.4,1.3,0.6,2.6,1.9,2.6h2.3v9.1
				c0,1.2,0.9,2.3,2.1,2.3c0.1,0,0.1,0,0.2,0c1.2,0,2.2-1,2.2-2.3v-8.6c0-0.3,0.3-0.6,0.6-0.6c0.3,0,0.6,0.3,0.6,0.6v8.5
				c0,1.2,0.9,2.3,2.1,2.3c0.1,0,0.1,0,0.2,0c1.2,0,2.2-1,2.2-2.3v-9.2h2.3c1.4,0,2.3-1.3,1.9-2.6L42,23.5c-0.2-0.7-0.3-1.5-0.2-2.3
				l0.1-0.9c0-0.1,0.1-0.2,0.2-0.2c0.1,0,0.1,0,0.2,0.1l2.9,9.5c0.3,0.8,1.1,1.4,1.9,1.4c0.2,0,0.4-0.1,0.6-0.1
				c1.1-0.4,1.6-1.5,1.3-2.6l-3.7-11.8C44.6,14.3,42.5,12.7,40,12.7L40,12.7z"/>
		</g>
	</g>
</g>
</svg>
