<?xml version="1.0" encoding="utf-8"?>
<!-- Generator: Adobe Illustrator 24.0.0, SVG Export Plug-In . SVG Version: 6.00 Build 0)  -->
<svg version="1.1" xmlns="http://www.w3.org/2000/svg" xmlns:xlink="http://www.w3.org/1999/xlink" x="0px" y="0px"
	 viewBox="0 0 50 50" style="enable-background:new 0 0 50 50;" xml:space="preserve">
<style type="text/css">
	.st0{fill:#FFFFFF;}
</style>
<g id="Layer_2">
</g>
<g id="Layer_1">
	<g>
		<circle class="st0" cx="11.2" cy="5.7" r="5.7"/>
		<path class="st0" d="M16,12.7H6.4c-3.1,0-5.6,2.5-5.6,5.6V29c0,1.1,0.8,2,1.9,2.1c1.2,0.1,2.2-0.8,2.2-2v-9.2
			c0-0.3,0.3-0.6,0.6-0.6c0.3,0,0.6,0.3,0.6,0.6v27.7c0,1.2,0.9,2.3,2.1,2.3c1.3,0.1,2.4-0.9,2.4-2.3V31.4c0-0.3,0.3-0.6,0.6-0.6
			c0.3,0,0.6,0.3,0.6,0.6v16.3c0,1.2,0.9,2.3,2.1,2.3c1.3,0.1,2.4-0.9,2.4-2.3V19.9c0-0.3,0.3-0.6,0.6-0.6c0.3,0,0.6,0.3,0.6,0.6V29
			c0,1.1,0.8,2,1.9,2.1c1.2,0.1,2.2-0.8,2.2-2V18.4C21.6,15.3,19.1,12.7,16,12.7z"/>
		<circle class="st0" cx="36.6" cy="5.7" r="5.7"/>
		<path class="st0" d="M49,28.5l-3.7-11.8c-0.7-2.4-2.9-3.9-5.4-3.9h-6.9c-2.5,0-4.6,1.6-5.4,3.9L24,28.5c-0.3,1.1,0.3,2.2,1.3,2.5
			s2.2-0.3,2.5-1.3l2.9-9.5c0.1-0.2,0.4-0.2,0.4,0.1l0.1,0.9c0.1,0.7,0,1.5-0.2,2.3l-3.9,12.4c-0.4,1.3,0.6,2.6,1.9,2.6h2.3v9.1
			c0,1.2,0.9,2.3,2.1,2.3c1.3,0.1,2.4-0.9,2.4-2.3v-8.6c0-0.3,0.3-0.6,0.6-0.6c0.3,0,0.6,0.3,0.6,0.6v8.5c0,1.2,0.9,2.3,2.1,2.3
			c1.3,0.1,2.4-0.9,2.4-2.3v-9.2h2.3c1.4,0,2.3-1.3,1.9-2.6L42,23.5c-0.2-0.7-0.3-1.5-0.2-2.3l0.1-0.9c0-0.2,0.3-0.3,0.4-0.1
			l2.9,9.5c0.3,0.8,1.1,1.4,1.9,1.4c0.2,0,0.4-0.1,0.6-0.1C48.8,30.7,49.4,29.5,49,28.5z"/>
	</g>
</g>
</svg>
