<?xml version="1.0" encoding="utf-8"?>
<!-- Generator: Adobe Illustrator 24.0.0, SVG Export Plug-In . SVG Version: 6.00 Build 0)  -->
<svg version="1.1" xmlns="http://www.w3.org/2000/svg" xmlns:xlink="http://www.w3.org/1999/xlink" x="0px" y="0px"
	 viewBox="0 0 50 50" style="enable-background:new 0 0 50 50;" xml:space="preserve">
<style type="text/css">
	.st0{fill:#FFFFFF;}
</style>
<g id="Layer_2">
</g>
<g id="Layer_1">
	<g>
		<path class="st0" d="M33.1,32.3L33.1,32.3c-0.3-0.2-0.7-0.2-0.9,0c-1.4,1.4-3.2,2.2-5.1,2.2c-2.7,0-5.2-1.6-6.7-4.3h6.9
			c0.4,0,0.7-0.3,0.7-0.7v-2.4c0-0.4-0.3-0.7-0.7-0.7h-8.1c-0.1-0.5-0.1-0.9-0.1-1.3c0-0.4,0-0.9,0.1-1.4h8.1c0.4,0,0.7-0.3,0.7-0.7
			v-2.4c0-0.4-0.3-0.7-0.7-0.7h-6.9c1.5-2.7,4-4.3,6.7-4.3c1.9,0,3.6,0.8,5.1,2.2c0.3,0.3,0.7,0.3,0.9,0l2.6-2.4
			c0.2-0.1,0.2-0.3,0.2-0.5c0-0.2-0.1-0.4-0.2-0.5c-2.4-2.4-5.5-3.8-8.7-3.8c-5.3,0-10.1,3.7-12,9.3h-2.9c-0.4,0-0.7,0.3-0.7,0.7V23
			c0,0.4,0.3,0.7,0.7,0.7h2.1c0,0.5-0.1,0.9-0.1,1.4c0,0.4,0,0.9,0.1,1.3h-2.1c-0.4,0-0.7,0.3-0.7,0.7v2.4c0,0.4,0.3,0.7,0.7,0.7
			h2.9c1.9,5.6,6.7,9.3,12,9.3c3.2,0,6.3-1.3,8.7-3.8c0.1-0.1,0.2-0.3,0.2-0.5c0-0.2-0.1-0.4-0.2-0.5L33.1,32.3z"/>
		<path class="st0" d="M25,0C11.2,0,0,11.2,0,25c0,13.8,11.2,25,25,25s25-11.2,25-25C50,11.2,38.8,0,25,0z M25,45.7
			C13.6,45.7,4.3,36.4,4.3,25S13.6,4.3,25,4.3S45.7,13.6,45.7,25S36.4,45.7,25,45.7z"/>
	</g>
</g>
</svg>
