<?xml version="1.0" encoding="utf-8"?>
<!-- Generator: Adobe Illustrator 24.0.1, SVG Export Plug-In . SVG Version: 6.00 Build 0)  -->
<svg version="1.1" id="Layer_1" xmlns="http://www.w3.org/2000/svg" xmlns:xlink="http://www.w3.org/1999/xlink" x="0px" y="0px"
	 viewBox="0 0 50 50" style="enable-background:new 0 0 50 50;" xml:space="preserve">
<style type="text/css">
	.st0{fill:#FFFFFF;}
</style>
<title>NP-fooddelivery-97</title>
<g>
	<path class="st0" d="M36.8,30.7c1-0.8,1.7-1.9,2.1-3.2h0.8c1.5,0,2.7-1.2,2.7-2.7V21c0-1.5-1.2-2.7-2.7-2.7h-0.5v-4.4
		C39,6,32.5-0.2,24.6,0C17.1,0.2,11,6.3,10.8,13.9v4.4h-0.5c-1.5,0-2.7,1.2-2.7,2.7v3.8c0,1.5,1.2,2.7,2.7,2.7h1.4v-8.5l0,0v-5.1
		c0.2-7.4,6.3-13.2,13.7-13c7.1,0.2,12.8,5.9,13,13v4.4l0,0v7.5c0,1-0.3,1.9-0.8,2.7c0.2-0.9,0.3-1.8,0.3-2.7V14.1
		c0-6-4.9-10.9-10.9-10.9h-3.8c-6,0-10.9,4.9-10.9,10.9v11.7c0,4.1,1.9,7.9,5.2,10.3h-0.1v3.8h-3.8c-5.1,0-9.2,4.1-9.2,9.2h1.8
		c0-4.1,3.3-7.4,7.4-7.4h4.7c0.5,0,0.9-0.4,0.9-0.9v-3.6c1.8,1,3.8,1.5,5.9,1.5C30.2,38.6,34.9,35.5,36.8,30.7z M25,36.8
		c-6.1,0-11-4.9-11-11V16c1.7-0.2,5.5-1,7.5-4.3c0.9,1.9,3.6,6.1,10.2,7h0.1c0.2,0,0.5-0.2,0.5-0.4c0-0.2-0.2-0.5-0.4-0.5
		c-8-1-9.8-7-9.9-7.3l-0.4-1.2l-0.5,1.2c-1.5,3.6-5.3,4.4-7.1,4.6v-1c0-5,4.1-9.1,9.1-9.1h3.8c5,0,9.1,4.1,9.1,9.1c0,0,0,0,0,0v3.2
		c-4.1-2.2-4.7-5.3-4.7-5.4c0-0.2-0.3-0.4-0.5-0.4s-0.4,0.3-0.4,0.5c0,0.2,0.7,3.8,5.6,6.3v7.5c0,1.8-0.4,3.6-1.3,5.1
		c-1,0.5-2.1,0.7-3.2,0.7H30c0-0.1,0-0.1,0-0.2c0-1.5-1.2-2.7-2.7-2.7H24c-1.5,0-2.7,1.2-2.7,2.7c0,1.5,1.2,2.7,2.7,2.7h3.3
		c1.1,0,2.1-0.7,2.5-1.7h1.6c0.8,0,1.6-0.1,2.4-0.4C31.8,35.1,28.5,36.8,25,36.8z"/>
	<path class="st0" d="M36.5,39.8h-4.6c-0.3,0-0.6,0.2-0.8,0.4L25.3,49l1.5,1l5.5-8.4h4.1c4.1,0,7.4,3.3,7.4,7.4h1.8
		C45.7,44,41.6,39.8,36.5,39.8z"/>
	<path class="st0" d="M38.8,46.5h-6.4c-0.5,0-0.9,0.4-0.9,0.9c0,0.5,0.4,0.9,0.9,0.9h6.4c0.5,0,0.9-0.4,0.9-0.9
		C39.7,46.9,39.3,46.5,38.8,46.5z"/>
	<path class="st0" d="M19.8,42.7c-0.2-0.2-0.5-0.2-0.6,0c-0.2,0.2-0.2,0.5,0,0.6c0,0,0,0,0.1,0l4.9,3.9c0.1,0.1,0.2,0.1,0.3,0.1
		c0.1,0,0.3-0.1,0.4-0.2c0.2-0.2,0.1-0.5-0.1-0.6L19.8,42.7z"/>
</g>
</svg>
