<?xml version="1.0" encoding="utf-8"?>
<!-- Generator: Adobe Illustrator 24.0.1, SVG Export Plug-In . SVG Version: 6.00 Build 0)  -->
<svg version="1.1" xmlns="http://www.w3.org/2000/svg" xmlns:xlink="http://www.w3.org/1999/xlink" x="0px" y="0px"
	 viewBox="0 0 50 50" style="enable-background:new 0 0 50 50;" xml:space="preserve">
<style type="text/css">
	.st0{fill:#FFFFFF;}
</style>
<g id="Layer_2">
</g>
<g id="Layer_1">
	<path class="st0" d="M25,0C11.2,0,0,11.2,0,25s11.2,25,25,25s25-11.2,25-25S38.8,0,25,0z M30.4,13c-1.7,0.3-3.5,0.5-5.4,0.5
		s-3.6-0.2-5.4-0.5C21,6.8,23.3,3.1,25,3.1S29,6.8,30.4,13z M30.3,3.8c3.8,0.9,7.2,2.9,9.9,5.6c-2,1.3-4.3,2.3-6.8,2.9
		C32.7,8.9,31.6,6,30.3,3.8z M18.5,23.4c0.1-2.7,0.3-5.2,0.6-7.4c1.9,0.3,3.9,0.5,5.9,0.5c2,0,4-0.2,5.9-0.5
		c0.3,2.2,0.5,4.7,0.6,7.4H18.5z M31.5,26.6c-0.1,2.7-0.3,5.2-0.6,7.4c-1.9-0.3-3.9-0.5-5.9-0.5c-2,0-4,0.2-5.9,0.5
		c-0.3-2.2-0.5-4.7-0.6-7.4H31.5z M16.6,12.3c-2.5-0.7-4.8-1.7-6.8-2.9c2.7-2.7,6.2-4.6,9.9-5.6C18.4,6,17.3,8.9,16.6,12.3z
		 M16.1,15.4c-0.4,2.6-0.6,5.3-0.7,8.1H3.3c0.3-4.4,1.9-8.4,4.5-11.7C10.1,13.3,12.9,14.6,16.1,15.4z M15.3,26.6
		c0.1,2.7,0.3,5.4,0.7,8.1c-3.1,0.8-5.9,2.1-8.4,3.7C5.1,35,3.5,30.9,3.2,26.6H15.3z M16.6,37.7c0.7,3.4,1.8,6.4,3.1,8.5
		c-3.8-0.9-7.2-2.9-9.9-5.6C11.7,39.4,14.1,38.4,16.6,37.7z M19.6,37c1.7-0.3,3.5-0.5,5.4-0.5s3.6,0.2,5.4,0.5
		c-1.4,6.2-3.6,9.9-5.4,9.9S21,43.2,19.6,37z M33.4,37.7c2.5,0.7,4.8,1.7,6.8,3c-2.7,2.7-6.2,4.6-9.9,5.6
		C31.6,44,32.7,41.1,33.4,37.7z M33.9,34.6c0.4-2.6,0.6-5.3,0.7-8.1h12.1c-0.3,4.4-1.9,8.4-4.5,11.7C39.9,36.7,37.1,35.4,33.9,34.6z
		 M34.7,23.4c-0.1-2.7-0.3-5.4-0.7-8.1c3.1-0.8,5.9-2.1,8.4-3.7c2.5,3.3,4.2,7.3,4.5,11.7H34.7z"/>
</g>
</svg>
