<?xml version="1.0" encoding="utf-8"?>
<!-- Generator: Adobe Illustrator 24.0.1, SVG Export Plug-In . SVG Version: 6.00 Build 0)  -->
<svg version="1.1" id="Layer_1" xmlns="http://www.w3.org/2000/svg" xmlns:xlink="http://www.w3.org/1999/xlink" x="0px" y="0px"
	 viewBox="0 0 50 50" style="enable-background:new 0 0 50 50;" xml:space="preserve">
<style type="text/css">
	.st0{fill:#FFFFFF;}
</style>
<g>
	<path class="st0" d="M39.9,11.8c-1.4,0-2.5,2.6-2.5,5.8c0,3.2,1.1,5.8,2.5,5.8c1.4,0,2.5-2.6,2.5-5.8
		C42.3,14.4,41.2,11.8,39.9,11.8z"/>
	<path class="st0" d="M39.9,0.2H10.1C6,0.2,2.7,8,2.7,17.6v32.2h32.2V34.9h5c4.1,0,7.4-7.8,7.4-17.3S44,0.2,39.9,0.2z M32.4,47.3
		H5.2V17.6c0-9.2,3.2-14.9,5-14.9h25.9c-2.2,3-3.6,8.5-3.6,14.9V47.3z M39.9,32.4c-1.7,0-5-5.6-5-14.9c0-9.2,3.2-14.9,5-14.9
		c1.7,0,5,5.6,5,14.9C44.8,26.8,41.6,32.4,39.9,32.4z"/>
</g>
</svg>
