<?xml version="1.0" encoding="utf-8"?>
<!-- Generator: Adobe Illustrator 23.1.0, SVG Export Plug-In . SVG Version: 6.00 Build 0)  -->
<svg version="1.1" id="Laag_1" xmlns="http://www.w3.org/2000/svg" xmlns:xlink="http://www.w3.org/1999/xlink" x="0px" y="0px"
	 viewBox="0 0 200 200" style="enable-background:new 0 0 200 200;" xml:space="preserve">
<style type="text/css">
	.st0{fill:#FFFFFF;}
	.st1{fill:#F6F6F6;}
</style>
<path class="st0" d="M23.28,91.54v8.56h-14v12.51H0v-36.3h25.28v8.72h-16v6.51H23.28z"/>
<path class="st0" d="M86.49,100.3V76.15h9.28v24.15c-0.05,17.02-29.02,17.02-28.97,0V76.15h9.28v24.15
	C76.08,106.14,86.44,106.14,86.49,100.3z"/>
<path class="st0" d="M121.99,101.51c0.1-2.05-3.23-3.23-6.2-3.64c-5.85-0.92-11.18-4.61-11.18-11.54c0-7.13,6.46-10.87,13.13-10.87
	c4.41,0,8.67,1.23,12.41,5.79l-6,4.61c-3.79-4.05-10.31-3.9-10.46,0.31c0.1,1.74,2,2.77,4.82,3.38c6.46,1.18,12.92,3.44,12.51,12.36
	c-0.31,7.02-7.69,10.87-14.36,10.87c-4.36,0-8.97-2.2-12.36-6.56l5.79-5.44C113.74,105.21,121.74,105.41,121.99,101.51z"/>
<path class="st0" d="M190.54,91.68c4.73,0,9.46,2.34,9.46,7.03v7c0,4.69-4.7,7.03-9.42,7.03c-4.73,0-9.46-2.34-9.46-7.03v-7
	C181.12,94,185.82,91.68,190.54,91.68z M190.58,107.94c1.83,0,3.67-0.75,3.67-2.23v-7c0-1.59-1.9-2.31-3.76-2.31
	c-1.8,0-3.6,0.81-3.6,2.31v7C186.88,107.22,188.74,107.94,190.58,107.94z"/>
<circle class="st1" cx="175.31" cy="110.86" r="1.92"/>
<g>
	<polygon class="st0" points="43.6,76.15 34.37,76.15 34.37,85.38 43.6,89.88 	"/>
	<polygon class="st0" points="43.6,103.37 43.6,96.12 34.37,91.63 34.37,112.45 58.37,112.45 58.37,103.37 	"/>
</g>
<polygon class="st0" points="139.47,112.45 148.7,112.45 148.7,109.09 139.47,104.12 "/>
<polygon class="st0" points="159.16,76.15 159.16,89.89 148.7,89.89 148.7,76.15 139.47,76.15 139.47,97.74 148.7,102.71 
	148.7,98.76 159.16,98.76 159.16,112.45 168.39,112.45 168.39,76.15 "/>
</svg>
