<?xml version="1.0" encoding="utf-8"?>
<!-- Generator: Adobe Illustrator 24.0.1, SVG Export Plug-In . SVG Version: 6.00 Build 0)  -->
<svg version="1.1" id="Laag_1" xmlns="http://www.w3.org/2000/svg" xmlns:xlink="http://www.w3.org/1999/xlink" x="0px" y="0px"
	 viewBox="0 0 200 200" style="enable-background:new 0 0 200 200;" xml:space="preserve">
<style type="text/css">
	.st0{fill:#1E66FF;}
	.st1{fill:#FFFFFF;}
	.st2{fill:#F6F6F6;}
</style>
<rect x="0.3" class="st0" width="199.7" height="199.7"/>
<path class="st1" d="M62,94.9v15H37.5v21.9H21.2V68.2h44.2v15.3h-28v11.4L62,94.9L62,94.9z"/>
<g>
	<polygon class="st1" points="97.5,67.9 81.4,67.9 81.4,84.1 97.5,91.9 	"/>
	<polygon class="st1" points="97.5,115.6 97.5,102.9 81.4,95 81.4,131.4 123.4,131.4 123.4,115.6 	"/>
</g>
<path class="st1" d="M162.6,94.8c8.3,0,16.5,4.1,16.5,12.3v12.3c0,8.2-8.2,12.3-16.5,12.3c-8.3,0-16.5-4.1-16.5-12.3v-12.3
	C146.1,98.8,154.3,94.8,162.6,94.8z M162.6,123.2c3.2,0,6.4-1.3,6.4-3.9v-12.3c0-2.8-3.3-4-6.6-4c-3.2,0-6.3,1.4-6.3,4v12.3
	C156.1,121.9,159.4,123.2,162.6,123.2z"/>
<circle class="st2" cx="135.9" cy="128.3" r="3.4"/>
</svg>
